<svg width="93" height="93" viewBox="0 0 93 93" fill="none" xmlns="http://www.w3.org/2000/svg">
<g filter="url(#filter0_d_72_5)">
<circle cx="46.5" cy="42.5" r="42" stroke="white"/>
<path d="M67.6746 56.3348H63.3157C63.1437 56.3348 62.9787 56.2665 62.857 56.1448C62.7354 56.0232 62.6671 55.8582 62.6671 55.6862C62.6671 55.5141 62.7354 55.3491 62.857 55.2275C62.9787 55.1058 63.1437 55.0375 63.3157 55.0375H67.6746C67.7898 55.0373 67.9003 54.9915 67.9817 54.91C68.0632 54.8286 68.109 54.7181 68.1092 54.6029V52.5532C68.1077 51.1481 67.5488 49.8011 66.5553 48.8076C65.5618 47.8141 64.2148 47.2553 62.8098 47.2537H25.2984V53.8505C25.2987 54.1652 25.4239 54.4669 25.6464 54.6895C25.869 54.912 26.1707 55.0372 26.4854 55.0375H29.2422C29.4142 55.0375 29.5792 55.1058 29.7008 55.2275C29.8225 55.3491 29.8908 55.5141 29.8908 55.6862C29.8908 55.8582 29.8225 56.0232 29.7008 56.1448C29.5792 56.2665 29.4142 56.3348 29.2422 56.3348H26.4854C25.8268 56.3341 25.1953 56.0722 24.7295 55.6064C24.2637 55.1406 24.0018 54.5091 24.0011 53.8505V46.6051C24.0011 46.433 24.0694 46.2681 24.1911 46.1464C24.3127 46.0248 24.4777 45.9564 24.6497 45.9564H62.8098C64.5587 45.9583 66.2356 46.6539 67.4723 47.8907C68.709 49.1274 69.4046 50.8042 69.4065 52.5532V54.6029C69.406 55.0621 69.2234 55.5023 68.8987 55.827C68.574 56.1517 68.1338 56.3343 67.6746 56.3348V56.3348Z" fill="white"/>
<path d="M55.3503 56.3349H37.4022C37.2302 56.3349 37.0652 56.2666 36.9435 56.1449C36.8219 56.0233 36.7535 55.8583 36.7535 55.6862C36.7535 55.5142 36.8219 55.3492 36.9435 55.2276C37.0652 55.1059 37.2302 55.0376 37.4022 55.0376H55.3503C55.5223 55.0376 55.6873 55.1059 55.8089 55.2276C55.9306 55.3492 55.9989 55.5142 55.9989 55.6862C55.9989 55.8583 55.9306 56.0233 55.8089 56.1449C55.6873 56.2666 55.5223 56.3349 55.3503 56.3349Z" fill="white"/>
<path d="M24.6498 47.2571C24.6022 47.257 24.5548 47.2518 24.5084 47.2415C24.4252 47.2231 24.3464 47.1884 24.2766 47.1396C24.2068 47.0907 24.1474 47.0286 24.1016 46.9567C24.0558 46.8848 24.0246 46.8047 24.0098 46.7208C23.9951 46.6368 23.9969 46.5508 24.0154 46.4677C24.844 43.2415 26.7611 40.4003 29.4427 38.4244C30.297 37.8356 31.311 37.5221 32.3486 37.526H48.7296C49.6118 37.5271 50.4844 37.7102 51.2926 38.064C52.1008 38.4178 52.8272 38.9347 53.4264 39.5823L59.5043 46.1673C59.566 46.2291 59.6147 46.3027 59.6473 46.3837C59.6799 46.4647 59.6958 46.5515 59.6941 46.6388C59.6923 46.7262 59.673 46.8122 59.6372 46.8919C59.6014 46.9715 59.5498 47.0432 59.4857 47.1024C59.4215 47.1617 59.3461 47.2074 59.2638 47.2368C59.1816 47.2661 59.0942 47.2786 59.0071 47.2734C58.9199 47.2683 58.8346 47.2455 58.7564 47.2066C58.6783 47.1677 58.6087 47.1133 58.5521 47.0469L52.4768 40.4638C51.999 39.9476 51.4198 39.5357 50.7755 39.2536C50.1311 38.9716 49.4355 38.8255 48.7322 38.8246H32.3492C31.5746 38.8218 30.8177 39.0561 30.1802 39.496C26.3434 42.1444 25.2932 46.7031 25.2835 46.7492C25.2515 46.8933 25.1712 47.0222 25.056 47.1146C24.9407 47.2069 24.7975 47.2572 24.6498 47.2571V47.2571Z" fill="white"/>
<path d="M44.758 47.2571C44.6032 47.2568 44.4536 47.2013 44.3362 47.1004C44.2187 46.9995 44.1413 46.86 44.1177 46.707L42.8205 38.2746C42.8042 38.1889 42.8054 38.1008 42.8239 38.0156C42.8425 37.9304 42.878 37.8499 42.9284 37.7787C42.9788 37.7076 43.043 37.6473 43.1173 37.6015C43.1915 37.5558 43.2742 37.5254 43.3604 37.5124C43.4466 37.4993 43.5345 37.5037 43.619 37.5254C43.7034 37.547 43.7827 37.5855 43.8519 37.6385C43.9212 37.6915 43.979 37.7579 44.022 37.8338C44.065 37.9096 44.0923 37.9933 44.1022 38.08L45.3995 46.5124C45.4133 46.6047 45.407 46.6988 45.3811 46.7885C45.3552 46.8781 45.3103 46.9611 45.2494 47.0318C45.1885 47.1025 45.1131 47.1592 45.0283 47.1981C44.9435 47.2369 44.8513 47.2571 44.758 47.2571Z" fill="white"/>
<path d="M32.4337 47.2571C32.369 47.2572 32.3046 47.2473 32.243 47.2279C32.0786 47.1773 31.9411 47.0636 31.8606 46.9117C31.78 46.7598 31.7631 46.5821 31.8135 46.4177L34.4081 37.9853C34.4332 37.9039 34.474 37.8282 34.5283 37.7625C34.5826 37.6968 34.6493 37.6425 34.7246 37.6027C34.7999 37.5628 34.8823 37.5381 34.9671 37.5301C35.0519 37.5221 35.1375 37.5308 35.219 37.5559C35.3004 37.5809 35.3761 37.6218 35.4417 37.6761C35.5074 37.7304 35.5617 37.7971 35.6016 37.8724C35.6415 37.9476 35.6661 38.0301 35.6741 38.1149C35.6822 38.1997 35.6734 38.2853 35.6484 38.3667L33.0538 46.7991C33.013 46.9317 32.9307 47.0478 32.8191 47.1302C32.7075 47.2126 32.5724 47.2571 32.4337 47.2571V47.2571Z" fill="white"/>
<path d="M59.3389 60.5121C58.422 60.5123 57.5257 60.2405 56.7632 59.7312C56.0007 59.2218 55.4064 58.4979 55.0555 57.6508C54.7045 56.8037 54.6126 55.8715 54.7914 54.9722C54.9702 54.0729 55.4117 53.2468 56.06 52.5984C56.7083 51.95 57.5343 51.5084 58.4336 51.3295C59.3329 51.1506 60.2651 51.2423 61.1122 51.5932C61.9594 51.944 62.6834 52.5382 63.1929 53.3006C63.7023 54.063 63.9742 54.9593 63.9742 55.8762C63.9728 57.1052 63.484 58.2835 62.6151 59.1526C61.7461 60.0217 60.5679 60.5106 59.3389 60.5121ZM59.3389 52.5383C58.6786 52.5382 58.033 52.7339 57.4839 53.1007C56.9347 53.4675 56.5067 53.9889 56.254 54.599C56.0012 55.209 55.935 55.8804 56.0638 56.5281C56.1926 57.1758 56.5106 57.7707 56.9775 58.2376C57.4445 58.7046 58.0394 59.0226 58.6871 59.1514C59.3348 59.2802 60.0061 59.214 60.6162 58.9612C61.2263 58.7085 61.7477 58.2804 62.1145 57.7313C62.4813 57.1822 62.677 56.5366 62.6769 55.8762C62.6762 54.9911 62.3244 54.1423 61.6986 53.5163C61.0727 52.8902 60.2241 52.538 59.3389 52.537V52.5383Z" fill="white"/>
<path d="M59.3389 58.0545C58.9078 58.0546 58.4864 57.9269 58.1279 57.6875C57.7694 57.4481 57.49 57.1077 57.3249 56.7095C57.1598 56.3113 57.1166 55.873 57.2006 55.4502C57.2846 55.0274 57.4922 54.639 57.7969 54.3341C58.1017 54.0293 58.4901 53.8216 58.9128 53.7375C59.3356 53.6533 59.7739 53.6965 60.1722 53.8614C60.5705 54.0263 60.9109 54.3057 61.1504 54.6641C61.3899 55.0225 61.5177 55.4439 61.5177 55.875C61.5172 56.4528 61.2875 57.0067 60.879 57.4153C60.4706 57.8239 59.9167 58.0538 59.3389 58.0545ZM59.3389 54.9935C59.1644 54.9934 58.9937 55.045 58.8486 55.1419C58.7034 55.2388 58.5902 55.3766 58.5234 55.5378C58.4565 55.699 58.439 55.8764 58.473 56.0476C58.5071 56.2188 58.5911 56.376 58.7145 56.4995C58.8379 56.6229 58.9952 56.7069 59.1663 56.7409C59.3375 56.7749 59.5149 56.7574 59.6762 56.6906C59.8374 56.6237 59.9752 56.5105 60.072 56.3654C60.1689 56.2202 60.2206 56.0495 60.2204 55.875C60.2201 55.6413 60.1271 55.4173 59.9619 55.2521C59.7966 55.0868 59.5726 54.9938 59.3389 54.9935V54.9935Z" fill="white"/>
<path d="M33.3229 58.0545C32.8918 58.0545 32.4705 57.9267 32.1121 57.6872C31.7536 57.4477 31.4743 57.1073 31.3093 56.7091C31.1444 56.3108 31.1012 55.8726 31.1853 55.4498C31.2694 55.0271 31.477 54.6387 31.7818 54.3339C32.0866 54.0291 32.4749 53.8215 32.8977 53.7374C33.3205 53.6533 33.7587 53.6965 34.1569 53.8615C34.5552 54.0264 34.8956 54.3058 35.135 54.6642C35.3745 55.0226 35.5024 55.444 35.5024 55.875C35.5018 56.4529 35.2721 57.0069 34.8634 57.4156C34.4548 57.8242 33.9008 58.054 33.3229 58.0545V58.0545ZM33.3229 54.9935C33.1484 54.9935 32.9778 55.0453 32.8327 55.1422C32.6876 55.2392 32.5746 55.377 32.5078 55.5382C32.4411 55.6995 32.4236 55.8769 32.4577 56.048C32.4918 56.2191 32.5759 56.3763 32.6993 56.4997C32.8228 56.623 32.98 56.707 33.1512 56.741C33.3224 56.7749 33.4997 56.7574 33.6609 56.6905C33.8221 56.6236 33.9598 56.5105 34.0567 56.3653C34.1536 56.2201 34.2052 56.0495 34.2051 55.875C34.2049 55.6412 34.1119 55.417 33.9464 55.2517C33.781 55.0864 33.5567 54.9935 33.3229 54.9935V54.9935Z" fill="white"/>
<path d="M33.3229 60.6082C32.3864 60.6082 31.4709 60.3305 30.6922 59.8102C29.9135 59.2899 29.3066 58.5504 28.9482 57.6851C28.5898 56.8199 28.496 55.8678 28.6788 54.9493C28.8615 54.0308 29.3124 53.1871 29.9747 52.5248C30.6369 51.8626 31.4806 51.4116 32.3991 51.2289C33.3177 51.0462 34.2697 51.14 35.135 51.4984C36.0002 51.8568 36.7397 52.4637 37.26 53.2424C37.7803 54.0211 38.058 54.9366 38.058 55.8731C38.0572 57.1287 37.558 58.3326 36.6702 59.2204C35.7824 60.1082 34.5785 60.6074 33.3229 60.6082ZM33.3229 52.4391C32.643 52.4391 31.9783 52.6408 31.4129 53.0185C30.8476 53.3963 30.407 53.9332 30.1468 54.5614C29.8866 55.1896 29.8185 55.8808 29.9511 56.5477C30.0838 57.2145 30.4112 57.8271 30.892 58.3079C31.3728 58.7887 31.9853 59.1161 32.6522 59.2488C33.3191 59.3814 34.0103 59.3133 34.6385 59.0531C35.2667 58.7929 35.8036 58.3523 36.1814 57.7869C36.5591 57.2216 36.7607 56.5569 36.7607 55.877C36.7607 55.4255 36.6718 54.9785 36.4991 54.5614C36.3263 54.1443 36.0731 53.7653 35.7538 53.4461C35.4346 53.1268 35.0556 52.8736 34.6385 52.7008C34.2214 52.5281 33.7744 52.4391 33.3229 52.4391V52.4391Z" fill="white"/>
<path d="M49.947 50.5003H48.6497C48.4777 50.5003 48.3127 50.432 48.1911 50.3103C48.0694 50.1887 48.0011 50.0237 48.0011 49.8516C48.0011 49.6796 48.0694 49.5146 48.1911 49.393C48.3127 49.2713 48.4777 49.203 48.6497 49.203H49.947C50.1191 49.203 50.2841 49.2713 50.4057 49.393C50.5274 49.5146 50.5957 49.6796 50.5957 49.8516C50.5957 50.0237 50.5274 50.1887 50.4057 50.3103C50.2841 50.432 50.1191 50.5003 49.947 50.5003Z" fill="white"/>
<path d="M42.4876 50.5003H41.1903C41.0182 50.5003 40.8533 50.432 40.7316 50.3103C40.61 50.1887 40.5416 50.0237 40.5416 49.8516C40.5416 49.6796 40.61 49.5146 40.7316 49.393C40.8533 49.2713 41.0182 49.203 41.1903 49.203H42.4876C42.6596 49.203 42.8246 49.2713 42.9462 49.393C43.0679 49.5146 43.1362 49.6796 43.1362 49.8516C43.1362 50.0237 43.0679 50.1887 42.9462 50.3103C42.8246 50.432 42.6596 50.5003 42.4876 50.5003Z" fill="white"/>
<path d="M44.542 38.8246H36.515C36.3429 38.8246 36.178 38.7563 36.0563 38.6346C35.9347 38.513 35.8663 38.348 35.8663 38.176V35.5814C35.8663 35.4094 35.9347 35.2444 36.0563 35.1227C36.178 35.0011 36.3429 34.9327 36.515 34.9327H44.542C44.714 34.9327 44.879 35.0011 45.0007 35.1227C45.1223 35.2444 45.1907 35.4094 45.1907 35.5814V38.176C45.1907 38.348 45.1223 38.513 45.0007 38.6346C44.879 38.7563 44.714 38.8246 44.542 38.8246ZM37.1636 37.5273H43.8934V36.23H37.1636V37.5273Z" fill="white"/>
<path d="M50.3655 36.23H30.6914C30.5193 36.23 30.3544 36.1617 30.2327 36.0401C30.1111 35.9184 30.0427 35.7534 30.0427 35.5814C30.0427 35.4094 30.1111 35.2444 30.2327 35.1227C30.3544 35.0011 30.5193 34.9327 30.6914 34.9327H50.3655C50.5376 34.9327 50.7026 35.0011 50.8242 35.1227C50.9458 35.2444 51.0142 35.4094 51.0142 35.5814C51.0142 35.7534 50.9458 35.9184 50.8242 36.0401C50.7026 36.1617 50.5376 36.23 50.3655 36.23Z" fill="white"/>
<path d="M48.7796 36.2275H37.0247C36.8527 36.2275 36.6877 36.1591 36.5661 36.0375C36.4444 35.9158 36.3761 35.7508 36.3761 35.5788C36.3761 35.4068 36.4444 35.2418 36.5661 35.1202C36.6877 34.9985 36.8527 34.9302 37.0247 34.9302H48.1309V26.6787C48.1309 26.5775 48.0907 26.4805 48.0192 26.409C47.9477 26.3375 47.8507 26.2973 47.7495 26.2973H38.0548C37.9537 26.2975 37.8568 26.3377 37.7853 26.4092C37.7138 26.4807 37.6736 26.5776 37.6734 26.6787V29.0528C37.6734 29.2248 37.6051 29.3898 37.4834 29.5114C37.3618 29.6331 37.1968 29.7014 37.0247 29.7014C36.8527 29.7014 36.6877 29.6331 36.5661 29.5114C36.4444 29.3898 36.3761 29.2248 36.3761 29.0528V26.6787C36.3766 26.2336 36.5536 25.807 36.8683 25.4922C37.1831 25.1775 37.6097 25.0005 38.0548 25H47.7476C48.193 25 48.6201 25.1768 48.9353 25.4916C49.2504 25.8063 49.4277 26.2333 49.4282 26.6787V35.5788C49.4282 35.7508 49.3599 35.9158 49.2382 36.0375C49.1166 36.1591 48.9516 36.2275 48.7796 36.2275Z" fill="white"/>
<path d="M42.9014 36.23H32.6884C32.5164 36.23 32.3514 36.1617 32.2298 36.04C32.1081 35.9184 32.0398 35.7534 32.0398 35.5814V30.0815C32.0403 29.6362 32.2174 29.2093 32.5322 28.8943C32.847 28.5794 33.2739 28.4022 33.7191 28.4015H41.8701C42.3155 28.402 42.7425 28.5792 43.0574 28.8941C43.3724 29.2091 43.5496 29.6361 43.5501 30.0815V35.5814C43.5501 35.7534 43.4817 35.9184 43.3601 36.04C43.2384 36.1617 43.0734 36.23 42.9014 36.23V36.23ZM33.3371 34.9327H42.2528V30.0815C42.2526 29.98 42.2122 29.8828 42.1405 29.8111C42.0688 29.7393 41.9715 29.699 41.8701 29.6988H33.7191C33.6178 29.699 33.5206 29.7394 33.449 29.8111C33.3773 29.8829 33.3371 29.9801 33.3371 30.0815V34.9327Z" fill="white"/>
</g>
<defs>
<filter id="filter0_d_72_5" x="0" y="0" width="93" height="93" filterUnits="userSpaceOnUse" color-interpolation-filters="sRGB">
<feFlood flood-opacity="0" result="BackgroundImageFix"/>
<feColorMatrix in="SourceAlpha" type="matrix" values="0 0 0 0 0 0 0 0 0 0 0 0 0 0 0 0 0 0 127 0" result="hardAlpha"/>
<feOffset dy="4"/>
<feGaussianBlur stdDeviation="2"/>
<feComposite in2="hardAlpha" operator="out"/>
<feColorMatrix type="matrix" values="0 0 0 0 0 0 0 0 0 0 0 0 0 0 0 0 0 0 0.25 0"/>
<feBlend mode="normal" in2="BackgroundImageFix" result="effect1_dropShadow_72_5"/>
<feBlend mode="normal" in="SourceGraphic" in2="effect1_dropShadow_72_5" result="shape"/>
</filter>
</defs>
</svg>
